<?xml version="1.0" standalone="no"?>
<!DOCTYPE svg PUBLIC "-//W3C//DTD SVG 20010904//EN"
 "http://www.w3.org/TR/2001/REC-SVG-20010904/DTD/svg10.dtd">
<svg version="1.0" xmlns="http://www.w3.org/2000/svg"
 width="636.000000pt" height="900.000000pt" viewBox="0 0 636.000000 900.000000"
 preserveAspectRatio="xMidYMid meet">

<g transform="translate(0.000000,900.000000) scale(0.100000,-0.100000)"
fill="#000000" stroke="none">
<path d="M2925 7121 c-3 -6 -26 -11 -50 -11 -24 0 -47 -5 -50 -11 -4 -5 -17
-14 -30 -19 -38 -14 -83 -91 -79 -135 1 -21 8 -41 15 -45 17 -11 -7 -239 -28
-262 -24 -27 -9 -124 25 -154 14 -14 31 -34 38 -47 33 -58 54 -112 54 -138 0
-16 5 -46 12 -67 l12 -38 130 -18 c72 -9 146 -20 165 -23 29 -5 38 -1 61 26
18 20 30 48 34 79 4 26 19 84 34 130 20 63 30 82 44 82 29 0 58 58 58 116 0
27 -4 54 -9 60 -5 5 -11 50 -13 101 -5 116 -40 195 -103 230 -28 15 -42 31
-45 50 -6 33 -69 73 -116 73 -17 0 -34 3 -38 8 -4 4 -24 7 -44 8 -21 0 -44 4
-53 8 -10 4 -20 3 -24 -3z"/>
<path d="M2872 6085 c10 -11 119 -26 131 -18 8 5 2 10 -18 14 -37 8 -120 11
-113 4z"/>
<path d="M3065 6048 c-44 -5 -114 -6 -155 -3 -95 8 -83 -7 24 -29 104 -21 210
-22 202 -1 -4 11 1 15 17 15 13 0 32 7 43 15 18 13 17 14 -16 13 -19 0 -71 -5
-115 -10z"/>
<path d="M2530 6024 c-8 -3 -42 -16 -75 -30 -33 -13 -80 -28 -105 -33 l-45 -9
50 -1 c38 -1 63 6 105 29 30 16 63 29 73 30 9 0 17 5 17 10 0 6 -1 10 -2 9 -2
0 -10 -3 -18 -5z"/>
<path d="M2735 5994 c-74 -19 -163 -53 -245 -95 -52 -26 -113 -53 -135 -60
-43 -14 -62 -26 -54 -34 8 -8 146 42 219 79 142 73 307 103 410 76 25 -7 124
-15 220 -20 168 -7 179 -9 275 -44 59 -22 122 -53 153 -76 52 -40 165 -86 183
-75 20 13 7 22 -46 34 -34 8 -84 32 -132 63 -146 95 -254 128 -427 128 -56 1
-132 5 -171 11 -89 12 -224 19 -250 13z"/>
<path d="M3016 5912 c-3 -5 8 -12 24 -14 17 -3 30 -1 30 4 0 4 -4 8 -9 8 -5 0
-16 3 -24 6 -8 3 -18 1 -21 -4z"/>
<path d="M2909 5873 c-1 -4 0 -21 0 -38 l2 -30 -20 33 c-13 19 -29 32 -42 32
-20 0 -21 -3 -14 -61 10 -86 19 -114 38 -117 13 -3 17 4 17 30 0 25 3 29 10
18 17 -26 11 -44 -25 -83 -36 -39 -45 -66 -22 -68 6 -1 -6 -5 -28 -8 -27 -4
-41 -12 -43 -24 -2 -10 -15 -30 -28 -44 -13 -14 -31 -47 -39 -72 l-15 -46 6
57 c8 89 -13 84 -70 -15 -15 -27 -35 -51 -44 -54 -9 -3 -30 -18 -45 -32 -24
-22 -31 -24 -47 -13 -11 7 -27 12 -35 12 -8 0 -25 6 -36 13 -17 10 -23 10 -26
0 -7 -20 -23 -15 -23 7 0 10 -8 23 -17 29 -13 7 -14 12 -6 23 10 12 17 41 14
62 0 5 -7 3 -14 -3 -11 -8 -17 -3 -29 23 -9 18 -26 36 -37 39 -19 5 -19 4 -4
-19 19 -30 7 -31 -26 -1 -22 19 -23 19 -11 2 8 -11 25 -33 39 -49 l26 -29 -38
6 c-32 5 -38 3 -33 -9 3 -9 6 -20 6 -25 0 -5 8 -9 18 -9 10 0 26 -17 38 -39
l21 -39 -23 -5 c-25 -4 -98 6 -126 18 -22 9 -23 -6 -3 -45 9 -18 24 -30 35
-30 11 0 20 -4 20 -10 0 -5 -24 -10 -54 -10 -76 0 -91 -21 -47 -62 42 -40 32
-48 -19 -14 -47 31 -71 34 -45 6 18 -19 17 -20 -21 -17 -33 2 -39 -1 -42 -20
-2 -14 -8 -20 -18 -16 -8 3 -14 -1 -14 -8 -1 -20 -36 -59 -53 -59 -17 0 -27
-21 -27 -59 0 -50 -54 -94 -75 -61 -4 6 -23 22 -43 35 -80 53 -80 53 -50 78
31 25 67 94 72 135 2 16 13 43 26 59 13 18 19 36 15 43 -5 8 -12 2 -21 -20 -8
-18 -28 -48 -44 -67 -17 -19 -28 -39 -24 -44 8 -14 -55 -79 -76 -79 -9 0 -32
-20 -53 -44 -20 -25 -47 -46 -59 -48 -13 -2 -22 -9 -20 -16 1 -7 -30 -52 -68
-100 -39 -48 -92 -114 -118 -147 -26 -33 -59 -71 -74 -86 -29 -28 -34 -44 -19
-53 5 -3 36 30 69 74 32 44 113 141 178 216 66 75 125 147 132 160 7 13 17 24
23 24 21 0 -57 -112 -147 -209 -111 -120 -246 -285 -275 -337 -16 -28 -63 -86
-104 -128 -72 -74 -90 -106 -61 -106 14 0 98 92 156 170 18 25 31 38 28 30
-11 -30 -38 -126 -48 -167 -6 -24 -21 -55 -34 -70 -20 -23 -26 -25 -40 -14
-28 23 -46 7 -39 -36 7 -43 13 -45 -70 25 -45 39 -54 39 -101 7 -20 -14 -49
-25 -64 -25 -32 0 -72 -25 -72 -46 0 -22 -25 -17 -51 11 -28 29 -60 32 -82 7
-16 -17 -16 -19 5 -30 13 -6 32 -12 43 -14 11 -2 20 -9 20 -16 0 -14 -213
-232 -227 -232 -4 0 -8 -5 -8 -10 0 -21 32 -23 68 -5 21 10 41 18 45 17 5 -2
17 8 29 20 18 20 17 19 -3 -17 -12 -22 -28 -47 -34 -55 -27 -33 -47 -82 -37
-92 16 -16 34 0 116 100 91 110 121 125 76 38 -10 -22 -17 -43 -14 -47 2 -4
-7 -19 -21 -33 -14 -14 -25 -36 -25 -50 0 -13 -3 -31 -6 -40 -4 -11 0 -16 14
-16 23 0 65 57 114 154 64 128 81 126 77 -6 -4 -90 -2 -103 13 -106 13 -2 21
10 33 52 8 31 22 80 30 110 11 41 23 59 49 77 19 13 45 42 57 64 25 46 117
135 204 197 32 24 86 68 120 99 33 30 142 126 241 212 192 166 223 197 293
295 24 34 74 87 111 117 86 70 233 223 254 264 17 32 36 34 36 3 0 -9 9 -31
19 -48 11 -18 22 -54 26 -80 4 -27 10 -62 15 -79 4 -16 11 -43 14 -60 6 -28 5
-29 -9 -11 -14 19 -15 17 -15 -21 0 -22 11 -66 25 -97 14 -31 20 -56 15 -56
-5 0 -12 11 -16 25 -11 44 -19 27 -16 -35 4 -64 21 -80 42 -39 11 20 14 18 47
-30 20 -28 40 -51 44 -51 14 0 10 52 -6 80 -8 14 -14 30 -14 35 -1 20 69 -100
85 -147 9 -29 36 -70 65 -102 46 -50 54 -55 107 -62 46 -6 52 -9 32 -15 -22
-6 -20 -7 13 -8 23 -1 40 4 43 13 4 10 30 12 125 8 129 -5 261 11 280 35 16
18 13 20 -72 42 -41 11 -103 31 -139 45 -53 20 -60 25 -35 25 78 2 401 -91
389 -111 -3 -4 -26 -8 -52 -8 -29 -1 -66 -10 -97 -25 -46 -23 -61 -25 -195
-25 -111 0 -159 -4 -202 -17 -32 -10 -58 -21 -58 -25 0 -9 333 1 453 13 54 6
150 10 213 10 108 -1 153 -9 237 -46 13 -5 17 -2 17 15 0 25 -20 99 -30 115
-4 6 -6 60 -5 120 1 61 3 152 4 203 1 57 5 91 11 87 5 -3 3 7 -5 22 -17 31
-20 77 -5 68 5 -3 10 24 12 66 3 80 19 100 37 46 7 -19 35 -59 64 -89 114
-122 193 -213 240 -281 71 -102 275 -301 457 -447 213 -171 329 -258 361 -272
15 -7 36 -30 47 -53 11 -23 42 -65 69 -95 58 -64 74 -92 98 -175 19 -69 30
-85 56 -85 24 0 24 16 2 102 -27 105 -4 104 72 -3 62 -87 88 -112 111 -107 28
5 28 32 -1 66 -28 33 -75 117 -75 133 0 25 33 3 89 -60 63 -71 95 -91 114 -72
17 17 -31 97 -95 161 -32 31 -58 60 -58 63 0 11 39 8 63 -4 12 -7 39 -27 60
-45 44 -40 77 -45 77 -11 0 23 -68 84 -165 149 -57 38 -95 99 -76 122 6 8 24
17 39 21 31 7 92 46 92 59 0 4 -16 5 -36 1 -24 -4 -34 -3 -29 4 9 15 -1 14
-35 -4 -20 -10 -62 -15 -142 -16 l-113 0 -62 -62 c-67 -66 -82 -69 -33 -7 17
21 30 43 30 49 0 20 -73 5 -88 -18 -14 -20 -15 -20 -38 14 -12 19 -22 46 -21
61 1 15 -4 29 -12 32 -11 3 -12 -2 -7 -23 7 -27 6 -28 -26 -21 -36 7 -56 28
-65 66 -5 26 -44 58 -101 85 -33 15 -33 17 -18 40 9 13 17 39 18 57 3 30 1 33
-22 30 -20 -3 -23 -1 -12 9 6 7 12 20 12 28 0 12 -3 11 -18 -2 -23 -21 -37
-21 -73 0 -28 16 -29 16 -44 -2 -14 -20 -14 -20 -15 3 0 12 -3 22 -7 22 -5 0
-14 4 -22 9 -11 7 -10 13 3 33 13 20 14 27 4 35 -25 19 -139 56 -178 57 l-39
1 6 37 c6 38 -9 54 -21 23 -7 -19 -26 -20 -26 -2 0 8 20 45 44 83 64 100 71
138 20 96 -22 -17 -70 -104 -85 -152 -7 -24 -7 -24 -8 6 -1 18 10 62 24 98 27
71 31 91 16 81 -5 -3 -22 -42 -37 -87 l-27 -82 -23 30 c-51 62 -44 119 19 165
40 29 63 56 55 65 -2 2 -28 -6 -58 -17 -41 -15 -59 -18 -79 -10 -14 5 -47 12
-73 16 -51 7 -66 25 -20 25 15 0 50 11 77 23 28 13 79 27 114 30 35 4 67 9 69
12 11 10 -9 18 -58 23 -39 3 -70 -2 -137 -26 -96 -33 -160 -45 -168 -32 -3 5
14 17 37 28 24 10 48 25 55 33 18 22 74 179 67 190 -10 17 -34 9 -73 -26 -21
-19 -46 -35 -56 -35 -15 0 -14 5 9 33 90 110 104 139 44 94 -46 -34 -119 -68
-131 -60 -6 4 -5 10 4 17 8 6 22 23 31 37 9 14 42 43 73 65 68 46 51 61 -21
19 -44 -26 -70 -27 -46 -3 7 7 12 21 12 32 0 18 -2 18 -26 -5 -18 -16 -28 -20
-31 -11 -14 38 -50 -15 -63 -94 -8 -51 -15 -63 -52 -96 -50 -44 -61 -46 -82
-16 -22 31 -20 55 4 61 13 3 20 14 20 30 0 13 9 32 20 42 32 29 25 42 -22 43
-24 0 -92 3 -153 6 -60 3 -104 3 -97 0 6 -3 12 -9 12 -14 0 -13 -37 1 -56 21
-19 21 -50 25 -56 8 -2 -5 -16 11 -33 36 -16 26 -37 50 -46 56 -10 5 -55 9
-100 9 -45 0 -80 3 -76 6 3 3 34 6 69 5 49 0 69 4 88 19 l25 20 -28 25 c-15
14 -35 25 -43 25 -8 0 -14 7 -12 17 2 10 -7 22 -22 30 l-25 13 26 0 c15 0 29
-7 33 -15 7 -20 36 -19 36 1 0 10 -10 43 -21 75 -37 101 -65 104 -100 9 -24
-65 -38 -65 -40 0 -2 53 -13 85 -32 88 -9 2 -17 0 -18 -5z m151 -93 c0 -5 -4
-10 -10 -10 -5 0 -10 5 -10 10 0 6 5 10 10 10 6 0 10 -4 10 -10z m-76 -96 c23
-9 20 -27 -4 -21 -14 3 -20 0 -20 -10 0 -14 -3 -13 -20 2 -11 10 -20 22 -20
27 0 9 41 11 64 2z m16 -85 c0 -6 -4 -7 -10 -4 -5 3 -10 11 -10 16 0 6 5 7 10
4 6 -3 10 -11 10 -16z m-53 -25 c-3 -3 -12 -4 -19 -1 -8 3 -5 6 6 6 11 1 17
-2 13 -5z m198 -49 c11 -7 38 -38 59 -70 40 -57 40 -57 26 -103 -7 -26 -13
-57 -14 -70 0 -12 -6 -26 -12 -30 -6 -4 -17 -25 -24 -47 -22 -69 -81 -217
-107 -270 -14 -27 -44 -97 -65 -155 -22 -58 -45 -110 -51 -116 -18 -18 -127
-26 -133 -10 -3 7 6 42 19 77 31 82 59 203 51 223 -3 9 5 27 20 43 28 30 33
39 99 193 60 140 75 189 58 199 -7 5 -69 11 -137 14 -69 4 -130 9 -135 12 -11
7 -12 118 -2 129 13 12 326 -5 348 -19z m364 -119 c21 -25 -9 -31 -32 -7 l-21
21 21 0 c11 0 26 -6 32 -14z m-473 -122 c-4 -14 -9 -24 -12 -21 -3 2 -2 17 2
31 3 15 9 25 11 22 3 -3 2 -17 -1 -32z m755 -17 c-13 -12 -20 -15 -16 -7 14
26 28 41 33 35 3 -3 -5 -16 -17 -28z m108 -54 c-5 -16 -18 -39 -29 -53 l-20
-25 15 43 c17 52 23 62 35 62 5 0 5 -12 -1 -27z m-2169 -123 c0 -5 -5 -10 -11
-10 -5 0 -7 5 -4 10 3 6 8 10 11 10 2 0 4 -4 4 -10z m38 -154 c77 -80 83 -111
17 -86 -26 10 -27 9 -21 -14 5 -20 3 -23 -12 -19 -10 2 -29 -6 -45 -21 -15
-14 -43 -28 -63 -32 -26 -5 -34 -11 -31 -23 11 -40 11 -46 0 -43 -7 1 -13 -2
-13 -8 0 -5 -13 -23 -30 -40 -16 -17 -30 -35 -30 -40 0 -13 -74 -50 -99 -50
-23 0 -42 -26 -62 -82 -14 -42 -29 -41 -29 3 0 37 -18 38 -26 2 -13 -60 -35
-119 -54 -143 l-20 -25 6 35 c3 19 14 62 25 95 10 33 17 67 16 76 -2 16 38 64
218 261 55 60 106 122 114 136 15 29 61 82 71 82 4 0 35 -29 68 -64z m2230 -1
c-23 -35 -38 -44 -38 -23 0 14 40 58 52 58 4 0 -2 -16 -14 -35z m-1199 -471
c11 -10 -8 -9 -44 3 l-40 13 40 -6 c22 -3 42 -8 44 -10z m2405 -370 c10 -25
-1 -29 -14 -5 -6 12 -7 21 -1 21 5 0 12 -7 15 -16z m-4450 -65 c-24 -27 -30
-15 -9 18 12 17 20 23 23 15 2 -7 -4 -22 -14 -33z"/>
<path d="M1459 4594 c-12 -14 -11 -16 5 -13 11 2 21 10 24 17 5 17 -13 15 -29
-4z"/>
<path d="M2226 5854 c-4 -9 -4 -19 -1 -22 2 -3 7 3 11 12 4 9 4 19 1 22 -2 3
-7 -3 -11 -12z"/>
<path d="M3156 5851 c-3 -5 -9 -37 -12 -70 -7 -66 1 -86 43 -102 14 -5 23 -17
23 -29 0 -12 5 -18 10 -15 6 3 10 22 10 40 0 29 -4 36 -25 41 -24 6 -25 9 -23
72 2 42 -1 66 -9 69 -6 2 -14 0 -17 -6z"/>
<path d="M2709 5826 c-10 -20 -8 -35 7 -77 23 -62 42 -77 81 -63 26 9 28 13
25 58 -3 74 -20 100 -65 104 -31 3 -39 -1 -48 -22z m69 -52 c5 -18 6 -37 1
-45 -11 -18 -43 56 -34 79 7 19 19 7 33 -34z"/>
<path d="M3271 5822 c-6 -11 -14 -51 -17 -90 l-7 -69 37 -6 c52 -8 62 -2 75
48 21 84 9 115 -51 130 -20 5 -29 2 -37 -13z m51 -81 c-11 -51 -35 -55 -26 -5
8 48 14 58 24 47 5 -4 5 -23 2 -42z"/>
<path d="M3529 5816 c17 -21 91 -70 96 -64 6 6 -84 78 -98 78 -5 0 -4 -6 2
-14z"/>
<path d="M2589 5791 l-23 -18 24 -64 c27 -76 31 -81 49 -70 11 7 11 15 3 39
-17 49 8 60 28 12 16 -39 44 -41 37 -2 -6 30 -28 90 -40 110 -12 18 -51 15
-78 -7z"/>
<path d="M3396 5761 c-9 -16 -18 -47 -22 -69 -5 -32 -2 -44 15 -61 37 -37 71
-26 89 28 17 50 15 88 -8 111 -29 29 -57 25 -74 -9z m50 -67 c-4 -18 -11 -34
-16 -34 -14 0 -12 47 2 73 15 28 22 8 14 -39z"/>
<path d="M2109 5734 c-22 -25 -22 -26 -3 -16 12 6 24 18 28 27 8 21 3 19 -25
-11z"/>
<path d="M3679 5635 c-24 -19 -49 -35 -56 -35 -18 0 -103 -93 -103 -112 0 -23
45 -24 100 -2 34 14 44 26 77 92 21 43 40 80 41 85 8 17 -18 5 -59 -28z"/>
<path d="M2047 5643 c-4 -3 -7 -13 -7 -22 1 -13 3 -13 11 2 11 19 8 33 -4 20z"/>
<path d="M2465 5640 c-3 -5 1 -10 9 -10 9 0 16 5 16 10 0 6 -4 10 -9 10 -6 0
-13 -4 -16 -10z"/>
<path d="M2550 5590 c-12 -8 -9 -10 13 -10 15 0 27 5 27 10 0 13 -20 13 -40 0z"/>
<path d="M2250 5570 c0 -5 5 -10 11 -10 5 0 7 5 4 10 -3 6 -8 10 -11 10 -2 0
-4 -4 -4 -10z"/>
<path d="M3790 5538 c0 -25 3 -29 10 -18 13 20 13 50 0 50 -5 0 -10 -15 -10
-32z"/>
<path d="M1980 5483 c0 -22 2 -25 10 -13 13 20 13 40 0 40 -5 0 -10 -12 -10
-27z"/>
<path d="M3826 5494 c-9 -24 -7 -28 9 -14 17 14 20 30 6 30 -5 0 -12 -7 -15
-16z"/>
<path d="M2220 5413 c0 -18 38 -59 46 -50 4 4 -4 20 -19 35 -15 14 -27 22 -27
15z"/>
<path d="M2190 5400 c0 -5 5 -10 11 -10 5 0 7 5 4 10 -3 6 -8 10 -11 10 -2 0
-4 -4 -4 -10z"/>
<path d="M2537 5393 c-4 -3 -7 -11 -7 -17 0 -6 5 -5 12 2 6 6 9 14 7 17 -3 3
-9 2 -12 -2z"/>
<path d="M1885 5370 c-10 -11 -13 -20 -8 -20 13 0 38 29 31 35 -3 3 -13 -4
-23 -15z"/>
<path d="M2045 5300 c3 -5 13 -10 21 -10 8 0 12 5 9 10 -3 6 -13 10 -21 10 -8
0 -12 -4 -9 -10z"/>
<path d="M3976 5243 c-2 -10 -8 -33 -11 -52 -4 -18 -23 -51 -43 -73 -28 -31
-32 -39 -17 -37 30 6 89 96 91 140 2 40 -11 53 -20 22z"/>
<path d="M4070 5160 c0 -5 6 -10 14 -10 8 0 18 5 21 10 3 6 -3 10 -14 10 -12
0 -21 -4 -21 -10z"/>
<path d="M4145 5140 c3 -5 11 -10 16 -10 6 0 7 5 4 10 -3 6 -11 10 -16 10 -6
0 -7 -4 -4 -10z"/>
<path d="M4194 5055 c-6 -19 -7 -40 -3 -47 5 -7 9 -23 9 -35 0 -13 10 -28 24
-35 13 -7 36 -28 51 -46 l27 -32 -26 -35 c-14 -18 -30 -45 -36 -59 -17 -46 16
-31 46 20 l28 47 40 -49 c23 -27 72 -82 110 -124 125 -136 197 -223 186 -230
-13 -8 -20 -99 -7 -107 5 -3 17 4 26 16 12 16 23 20 36 15 16 -6 14 0 -9 24
-16 18 -27 34 -24 37 3 3 38 -29 77 -72 73 -80 166 -163 182 -163 21 0 6 27
-43 75 -82 79 -172 175 -215 227 -96 118 -294 349 -352 410 -35 38 -61 68 -58
68 20 0 57 -27 85 -63 17 -23 56 -69 85 -102 28 -34 111 -133 184 -220 200
-242 353 -393 353 -348 0 3 -37 42 -82 85 -46 44 -107 102 -135 130 -29 28
-50 54 -48 58 8 13 -74 130 -90 130 -8 0 -26 20 -40 45 -15 24 -34 47 -43 50
-9 3 -28 22 -42 42 -34 50 -185 201 -239 237 -37 26 -42 33 -37 58 8 40 -7 35
-20 -7z m60 -80 c-4 -8 -10 -12 -15 -9 -14 8 -10 24 6 24 9 0 12 -6 9 -15z"/>
<path d="M2411 4628 c-12 -40 -27 -84 -34 -98 -6 -14 -13 -29 -15 -33 -2 -5 5
-3 17 5 12 7 21 23 21 38 0 15 7 35 15 46 14 18 14 18 15 -9 0 -29 47 -106 64
-107 15 0 -1 111 -24 173 -12 31 -25 57 -30 57 -4 0 -18 -33 -29 -72z"/>
<path d="M2515 4577 c20 -74 38 -107 56 -107 25 0 24 13 -7 71 -29 52 -60 76
-49 36z"/>
<path d="M1195 4521 c-15 -30 -54 -76 -100 -117 -67 -62 -90 -94 -67 -94 21 0
162 149 186 197 29 58 30 63 16 63 -5 0 -21 -22 -35 -49z"/>
<path d="M2590 4537 c0 -19 57 -97 72 -97 19 0 5 30 -32 71 -29 32 -39 39 -40
26z"/>
<path d="M2715 4350 c-67 -3 -129 -12 -140 -19 -18 -11 -16 -12 15 -6 19 4
122 10 228 15 106 4 196 11 199 14 7 7 -135 5 -302 -4z"/>
<path d="M3248 4343 c12 -2 30 -2 40 0 9 3 -1 5 -23 4 -22 0 -30 -2 -17 -4z"/>
<path d="M2395 4325 c-5 -2 -27 -6 -48 -10 -21 -3 -35 -10 -32 -16 4 -5 18 -7
33 -3 15 3 37 7 50 10 12 2 22 9 22 14 0 10 -6 11 -25 5z"/>
<path d="M3004 4315 c11 -8 31 -15 45 -14 26 1 26 1 -4 14 -42 19 -66 19 -41
0z"/>
<path d="M3577 4317 c17 -7 35 -15 39 -19 17 -18 26 -6 9 12 -11 12 -30 20
-49 19 l-31 -1 32 -11z"/>
<path d="M2880 4310 c0 -5 9 -10 20 -10 11 0 20 -5 20 -11 0 -5 -3 -8 -7 -6
-5 3 -51 10 -103 16 -97 11 -202 3 -224 -19 -17 -17 2 -23 36 -11 59 21 372
-13 597 -63 44 -10 71 -10 135 0 154 25 203 16 235 -44 14 -25 33 -30 24 -6
-5 13 4 10 33 -10 38 -26 94 -35 94 -16 0 6 -8 10 -17 10 -10 0 -52 21 -93 45
-41 25 -66 45 -57 45 25 0 21 18 -5 22 -16 2 -22 9 -20 22 3 13 -1 17 -12 13
-9 -4 -54 -11 -101 -18 -64 -8 -89 -8 -99 1 -11 9 -16 7 -24 -5 -8 -16 -11
-16 -41 -1 -22 12 -64 18 -144 20 -75 2 -125 9 -151 20 -43 18 -96 21 -96 6z"/>
<path d="M2340 4271 c-26 -7 -35 -28 -22 -48 5 -8 27 -2 77 22 l70 34 -50 0
c-27 -1 -61 -4 -75 -8z"/>
<path d="M4780 4267 c0 -14 39 -41 48 -33 6 7 -27 46 -40 46 -4 0 -8 -6 -8
-13z"/>
<path d="M2540 4225 c-8 -9 -8 -15 -2 -15 12 0 26 19 19 26 -2 2 -10 -2 -17
-11z"/>
<path d="M3590 4106 c-74 -18 -82 -32 -59 -93 l10 -28 21 25 c16 20 19 21 13
5 -12 -35 -10 -39 12 -43 17 -2 26 4 34 22 7 14 20 28 30 31 25 8 59 -12 59
-34 0 -17 42 -71 55 -71 3 0 5 15 5 34 0 28 -11 46 -62 100 -33 36 -64 65 -67
65 -3 -1 -26 -6 -51 -13z"/>
<path d="M2298 3949 c-21 -44 -26 -82 -13 -89 16 -8 36 47 33 88 l-4 37 -16
-36z"/>
<path d="M3067 3854 c-28 -24 -40 -27 -112 -28 -38 -1 -41 -4 -66 -53 -17 -34
-30 -48 -36 -42 -10 10 -22 7 -138 -47 -44 -20 -78 -28 -125 -29 -89 -2 -89
-2 -53 -24 17 -11 50 -45 73 -76 22 -30 64 -71 93 -90 56 -37 154 -75 196 -75
34 -1 118 -30 154 -54 28 -19 28 -20 9 -38 -24 -25 -126 -51 -163 -43 -16 4
-43 18 -59 31 -16 14 -37 24 -47 22 -11 -2 -17 2 -15 11 3 14 -15 41 -29 41
-5 0 -6 -7 -3 -15 13 -32 -16 -13 -51 35 -37 50 -151 160 -167 160 -25 0 10
-79 60 -136 51 -58 187 -138 200 -117 5 8 14 7 31 -6 26 -20 21 -41 -10 -41
-11 0 -60 16 -110 35 -139 54 -296 80 -275 46 4 -5 39 -22 79 -37 81 -30 107
-49 107 -76 0 -11 7 -18 18 -18 20 0 151 -89 152 -102 0 -14 -46 -8 -86 11
-49 24 -114 42 -114 32 0 -4 29 -20 65 -36 36 -16 65 -32 65 -36 0 -6 -123
-22 -170 -21 -14 0 -45 5 -70 10 -56 13 -76 -1 -41 -27 23 -18 24 -20 8 -36
-9 -9 -17 -22 -17 -29 0 -7 -13 -25 -30 -41 l-29 -28 -117 41 c-65 23 -120 40
-122 37 -3 -3 12 -12 34 -21 102 -42 184 -84 184 -93 0 -17 -18 -13 -123 24
-114 41 -132 43 -116 17 14 -22 -13 -82 -36 -82 -8 0 -15 -9 -15 -20 0 -21
-62 -113 -94 -139 -26 -22 -74 -94 -81 -124 -7 -26 -6 -27 55 -41 14 -3 36
-15 50 -26 l25 -20 -45 20 c-48 21 -115 26 -125 10 -3 -5 0 -10 7 -11 7 0 3
-5 -9 -11 -38 -18 -26 -25 36 -20 89 6 195 -33 243 -92 27 -32 21 -40 -11 -16
-66 46 -162 83 -218 83 -84 0 -87 -19 -3 -27 79 -7 127 -24 177 -62 39 -29 35
-49 -14 -69 -28 -12 -33 -18 -28 -38 7 -27 -8 -43 -45 -49 -19 -2 -25 -9 -25
-28 0 -36 -12 -50 -46 -50 -34 0 -48 -23 -31 -51 17 -27 15 -29 -15 -14 -23
11 -45 12 -123 2 -111 -14 -122 -29 -43 -57 28 -10 57 -21 62 -25 15 -9 14
-25 -1 -25 -7 -1 -26 -12 -43 -25 -23 -19 -26 -25 -13 -25 23 0 33 -42 18 -70
-7 -14 -10 -39 -6 -62 5 -31 2 -46 -16 -71 -34 -47 -156 -292 -170 -340 -6
-23 -18 -51 -25 -62 -7 -11 -13 -27 -13 -35 0 -9 -5 -21 -12 -28 -7 -7 -17
-26 -22 -44 -6 -17 -18 -34 -26 -38 -8 -4 -25 -12 -38 -19 -17 -9 -22 -9 -20
1 4 18 -36 20 -122 5 -59 -10 -76 -17 -78 -31 -3 -13 0 -16 9 -11 9 6 11 3 6
-9 -4 -10 -7 -22 -7 -28 0 -5 -14 -23 -32 -40 -28 -26 -30 -32 -20 -49 7 -11
10 -24 7 -29 -4 -6 8 -8 26 -6 33 4 79 -11 79 -25 0 -12 -33 -20 -92 -23 -29
-1 -64 -8 -77 -16 -21 -11 -26 -10 -38 6 -7 10 -13 28 -13 42 0 31 -17 19 -25
-18 -4 -17 -13 -30 -21 -30 -18 0 -18 7 4 38 38 54 34 56 -16 10 -37 -35 -56
-46 -69 -41 -16 6 -16 5 -4 -10 12 -15 11 -17 -8 -17 -11 0 -21 -4 -21 -10 0
-5 7 -10 16 -10 24 0 7 -18 -24 -25 -15 -3 -38 -15 -51 -26 -23 -19 -23 -21
-7 -37 15 -15 42 -17 259 -14 247 3 318 13 347 47 6 7 13 53 15 102 3 60 10
101 23 128 11 22 23 56 27 75 10 46 119 262 191 376 71 114 118 175 197 255
77 79 120 140 141 202 39 115 110 284 127 302 23 25 49 87 49 116 0 12 19 45
43 73 24 28 75 101 114 163 39 61 96 143 127 182 l56 70 104 -5 104 -5 21 58
c12 32 28 76 36 98 8 22 25 52 37 67 13 15 46 55 73 88 63 76 95 97 170 108
50 8 68 7 115 -11 63 -23 82 -41 74 -71 -4 -17 8 -30 61 -68 36 -27 75 -48 86
-48 18 0 20 -4 14 -29 -6 -27 -4 -30 17 -29 13 1 28 6 35 11 14 10 36 0 28
-14 -4 -5 -18 -9 -33 -9 -45 0 -53 -11 -46 -63 l7 -47 46 0 c74 0 123 11 117
26 -7 18 24 23 54 8 37 -18 76 -63 203 -236 105 -142 200 -259 216 -266 4 -1
33 20 65 47 60 51 181 121 209 121 9 0 19 5 23 12 13 20 -73 0 -138 -33 -33
-16 -81 -49 -106 -72 -33 -29 -42 -34 -31 -17 37 59 190 140 264 140 36 0 46
13 22 27 -8 4 -20 20 -28 35 -8 14 -44 66 -82 115 -55 71 -147 235 -147 260 0
14 44 -35 61 -69 11 -21 24 -38 29 -38 13 0 13 1 -7 40 -9 18 -17 45 -18 59
-1 14 -3 34 -3 44 -1 9 -8 17 -16 17 -8 0 -84 -22 -168 -49 -211 -68 -328 -95
-313 -71 4 6 10 8 15 5 5 -3 30 3 54 15 25 11 51 20 59 20 8 0 81 25 163 56
199 74 182 66 164 71 -9 2 -81 -17 -160 -42 -80 -24 -151 -45 -159 -45 -22 0
27 48 53 53 18 3 15 6 -16 20 -21 9 -48 17 -61 17 -14 0 -46 9 -72 21 -32 14
-86 24 -176 32 -71 6 -129 14 -129 19 0 12 37 28 67 28 15 0 52 11 81 25 30
14 66 25 81 25 31 0 71 25 71 45 0 11 -17 13 -87 9 -49 -3 -103 -10 -120 -14
-18 -5 -33 -6 -33 -4 0 3 14 23 32 45 22 28 34 36 40 27 8 -14 5 -15 79 40 23
18 62 38 86 44 51 12 66 28 26 28 -54 0 -105 -22 -144 -61 -45 -45 -47 -43
-19 12 39 76 146 129 262 129 32 0 58 4 58 10 0 12 -94 40 -134 40 -17 0 -55
-11 -85 -25 -59 -28 -80 -27 -34 1 15 10 49 39 74 66 43 44 49 48 94 48 38 0
46 3 37 12 -7 7 -28 12 -47 11 -38 -1 -44 7 -20 27 8 7 15 19 15 26 0 27 -28
14 -53 -25 -32 -48 -172 -220 -199 -243 -12 -11 -34 -17 -56 -16 -21 0 -94
-18 -164 -41 -142 -46 -148 -47 -148 -26 0 9 14 16 38 20 62 10 180 45 235 69
29 13 85 49 125 81 92 74 96 90 14 61 -22 -8 -43 -12 -46 -9 -2 3 36 45 87 94
50 48 88 91 84 95 -4 4 -13 2 -19 -4 -17 -17 -29 -15 -26 6 3 15 -8 17 -106
17 -99 0 -109 -2 -116 -20 -12 -31 -45 -56 -71 -53 -21 3 -29 -7 -63 -74 -45
-87 -72 -109 -111 -88 -32 17 -32 30 -1 30 14 0 28 5 31 10 3 6 -3 10 -14 10
-12 0 -21 7 -21 15 0 8 -9 15 -19 15 -19 0 -51 34 -51 53 0 5 10 7 22 4 12 -3
29 -2 38 3 40 21 100 130 72 130 -6 0 -26 -23 -47 -51 -46 -65 -70 -64 -70 3
-1 62 -13 73 -48 42z m484 -119 c-17 -19 -38 -49 -46 -65 -13 -26 -35 -41 -35
-25 0 21 86 125 103 125 5 0 -5 -16 -22 -35z m-476 -45 c11 -18 -38 -49 -76
-50 -19 0 -44 7 -55 15 -18 14 -18 14 6 15 14 1 39 7 55 15 37 17 62 18 70 5z
m385 -264 c0 -8 -162 -128 -166 -123 -7 7 137 127 153 127 7 0 13 -2 13 -4z
m54 -547 c-7 -12 -41 -12 -49 0 -9 15 28 31 42 19 7 -6 10 -14 7 -19z m-2214
-1919 c0 -5 -7 -10 -15 -10 -8 0 -15 5 -15 10 0 6 7 10 15 10 8 0 15 -4 15
-10z"/>
<path d="M3776 3808 c-19 -26 -8 -49 11 -23 12 18 18 45 9 45 -3 0 -12 -10
-20 -22z"/>
<path d="M2255 3750 c-3 -6 -4 -19 0 -30 3 -10 1 -28 -5 -40 -6 -11 -7 -20 -1
-20 14 0 42 66 35 84 -7 18 -20 21 -29 6z"/>
<path d="M2170 3529 c0 -5 5 -7 10 -4 6 3 10 8 10 11 0 2 -4 4 -10 4 -5 0 -10
-5 -10 -11z"/>
<path d="M3732 3230 c-25 -24 -28 -40 -7 -40 8 0 21 14 30 30 18 35 8 39 -23
10z"/>
<path d="M2172 3118 c4 -43 33 -46 33 -3 0 21 -5 31 -18 33 -15 3 -18 -2 -15
-30z"/>
<path d="M2137 3123 c-4 -3 -7 -15 -7 -26 0 -16 3 -17 15 -7 8 7 15 19 15 26
0 15 -12 19 -23 7z"/>
<path d="M2162 3048 c3 -7 17 -14 32 -16 20 -3 27 0 24 10 -3 7 -17 14 -32 16
-20 3 -27 0 -24 -10z"/>
<path d="M2320 3040 c0 -13 18 -22 24 -11 3 5 -1 11 -9 15 -8 3 -15 1 -15 -4z"/>
<path d="M2385 2990 c3 -5 10 -10 16 -10 5 0 9 5 9 10 0 6 -7 10 -16 10 -8 0
-12 -4 -9 -10z"/>
<path d="M2014 2935 c10 -8 23 -12 29 -8 11 7 -12 23 -33 23 -12 -1 -11 -4 4
-15z"/>
<path d="M4233 2460 c-98 -49 -176 -118 -171 -151 5 -35 21 -33 42 5 25 47 49
68 127 110 68 37 120 47 173 32 l28 -9 -17 27 c-27 40 -83 36 -182 -14z"/>
<path d="M4200 2165 c-19 -23 -1 -39 21 -19 10 9 19 21 19 26 0 13 -27 9 -40
-7z"/>
<path d="M4400 2120 c-12 -8 -12 -10 2 -15 20 -8 41 2 33 16 -8 11 -16 11 -35
-1z"/>
<path d="M4255 2089 c-40 -35 -43 -51 -16 -95 10 -17 22 -46 26 -65 6 -26 39
-64 139 -161 72 -69 132 -122 134 -118 5 14 49 -18 55 -40 3 -11 16 -24 30
-29 23 -9 77 -68 77 -85 0 -15 44 -66 57 -66 10 0 8 8 -7 30 -43 65 -57 87
-78 128 -12 23 -22 51 -22 61 0 11 -9 21 -23 25 -13 3 -30 20 -40 41 -9 20
-22 33 -27 30 -5 -3 -19 -1 -30 5 -19 10 -20 17 -14 73 6 55 12 67 50 109 62
66 59 73 -19 68 -25 -1 -43 4 -50 14 -9 11 -34 16 -89 18 -70 2 -80 0 -103
-22 -28 -26 -31 -23 -13 14 6 14 27 36 47 48 28 17 32 23 19 26 -10 2 -18 8
-18 13 0 20 -51 7 -85 -22z"/>
<path d="M4823 1402 c-24 -21 -43 -43 -43 -51 0 -19 11 -11 59 42 52 56 43 61
-16 9z"/>
<path d="M5050 1298 c-47 -4 -93 -6 -103 -4 -14 3 -16 0 -12 -15 4 -13 2 -19
-9 -19 -9 0 -16 -5 -16 -11 0 -8 -4 -8 -13 0 -10 8 -17 7 -25 -1 -16 -16 -15
-33 4 -70 24 -46 54 -162 54 -208 0 -61 28 -75 137 -66 85 7 457 71 474 82 31
19 -35 66 -111 79 -19 3 -47 14 -61 25 -16 11 -30 15 -35 10 -6 -6 -27 -4 -52
3 -46 14 -112 83 -112 118 0 10 -5 21 -10 24 -6 3 -7 17 -4 29 7 31 -4 33
-106 24z m30 -149 c50 -15 55 -18 25 -14 -22 3 -52 5 -66 5 -14 0 -34 7 -45
15 -19 14 -19 14 1 14 11 0 49 -9 85 -20z m-115 -50 c4 -5 -1 -19 -11 -30 -18
-20 -18 -20 -26 2 -11 30 21 54 37 28z"/>
<path d="M5240 1205 c0 -3 10 -20 22 -38 13 -18 24 -34 26 -37 2 -2 6 1 10 7
5 8 17 8 45 -2 41 -14 45 -10 19 20 -27 33 -122 71 -122 50z"/>
</g>
</svg>
